<svg xmlns="http://www.w3.org/2000/svg" viewBox="0 0 128 128" width="128" height="128"><defs>

<filter id="shr1" x="-30%" y="-30%" width="160%" height="170%">
  <feDropShadow dx="0" dy="3" stdDeviation="3" flood-color="#04141f" flood-opacity="0.55"/>
</filter>

<!-- 위쪽 베벨: 빛을 받는 면 -->
<filter id="inr1" x="-20%" y="-20%" width="140%" height="140%">
  <feOffset dx="-2" dy="-7" in="SourceAlpha" result="o"/>
  <feGaussianBlur in="o" stdDeviation="4" result="b"/>
  <feComposite in="SourceAlpha" in2="b" operator="out" result="inner"/>
  <feFlood flood-color="#ffffff" flood-opacity="0.9"/>
  <feComposite in2="inner" operator="in"/>
</filter>
<!-- 아래쪽 그늘 -->
<filter id="aor1" x="-20%" y="-20%" width="140%" height="140%">
  <feOffset dx="2" dy="8" in="SourceAlpha" result="o"/>
  <feGaussianBlur in="o" stdDeviation="7" result="b"/>
  <feComposite in="SourceAlpha" in2="b" operator="out" result="inner"/>
  <feFlood flood-color="#000814" flood-opacity="0.62"/>
  <feComposite in2="inner" operator="in"/>
</filter>
<!-- 바닥 반사광(림라이트): 이게 있어야 물속에 떠 있는 입체로 보인다 -->
<filter id="rimr1" x="-20%" y="-20%" width="140%" height="140%">
  <feOffset dx="0" dy="11" in="SourceAlpha" result="o"/>
  <feGaussianBlur in="o" stdDeviation="2.5" result="b"/>
  <feComposite in="SourceAlpha" in2="b" operator="out" result="inner"/>
  <feFlood flood-color="#9fe8ff" flood-opacity="0.5"/>
  <feComposite in2="inner" operator="in"/>
</filter>

<radialGradient id="glossG" cx="0.5" cy="0.5" r="0.5">
  <stop offset="0" stop-color="#ffffff" stop-opacity="0.95"/>
  <stop offset="0.55" stop-color="#ffffff" stop-opacity="0.35"/>
  <stop offset="1" stop-color="#ffffff" stop-opacity="0"/>
</radialGradient>
<linearGradient id="bodyr1" x1="0.2" y1="-0.05" x2="0.8" y2="1.05">
  <stop offset="0" stop-color="#8fa0b0"/>
  <stop offset="0.34" stop-color="#5d6b7a"/>
  <stop offset="1" stop-color="#2b3540"/>
</linearGradient>
<clipPath id="clipr1"><polygon points="116.7,64.0 98.2,86.0 84.3,108.4 57.4,109.7 35.9,96.4 14.6,78.5 26.4,53.0 29.4,24.1 58.2,23.9 84.4,19.3 102.5,39.2" fill="none"/></clipPath>
</defs>
<g filter="url(#shr1)">
  <polygon points="116.7,64.0 98.2,86.0 84.3,108.4 57.4,109.7 35.9,96.4 14.6,78.5 26.4,53.0 29.4,24.1 58.2,23.9 84.4,19.3 102.5,39.2" fill="url(#bodyr1)"/>
</g>
<g clip-path="url(#clipr1)">
  <circle cx="65.6" cy="69.8" r="1.6" fill="#0f1720" opacity="0.28"/><circle cx="65.6" cy="68.8" r="1.6" fill="#c8d6e2" opacity="0.16"/><circle cx="53.0" cy="57.1" r="2.6" fill="#0f1720" opacity="0.28"/><circle cx="53.0" cy="56.1" r="2.6" fill="#c8d6e2" opacity="0.16"/><circle cx="83.7" cy="60.3" r="3.6" fill="#0f1720" opacity="0.28"/><circle cx="83.7" cy="59.3" r="3.6" fill="#c8d6e2" opacity="0.16"/><circle cx="47.8" cy="85.6" r="4.6" fill="#0f1720" opacity="0.28"/><circle cx="47.8" cy="84.6" r="4.6" fill="#c8d6e2" opacity="0.16"/><circle cx="60.6" cy="30.2" r="1.6" fill="#0f1720" opacity="0.28"/><circle cx="60.6" cy="29.2" r="1.6" fill="#c8d6e2" opacity="0.16"/><circle cx="94.6" cy="91.3" r="2.6" fill="#0f1720" opacity="0.28"/><circle cx="94.6" cy="90.3" r="2.6" fill="#c8d6e2" opacity="0.16"/><circle cx="58.0" cy="64.1" r="3.6" fill="#0f1720" opacity="0.28"/><circle cx="58.0" cy="63.1" r="3.6" fill="#c8d6e2" opacity="0.16"/><circle cx="73.5" cy="55.1" r="4.6" fill="#0f1720" opacity="0.28"/><circle cx="73.5" cy="54.1" r="4.6" fill="#c8d6e2" opacity="0.16"/><circle cx="62.6" cy="83.9" r="1.6" fill="#0f1720" opacity="0.28"/><circle cx="62.6" cy="82.9" r="1.6" fill="#c8d6e2" opacity="0.16"/><circle cx="47.2" cy="42.9" r="2.6" fill="#0f1720" opacity="0.28"/><circle cx="47.2" cy="41.9" r="2.6" fill="#c8d6e2" opacity="0.16"/><circle cx="97.6" cy="69.3" r="3.6" fill="#0f1720" opacity="0.28"/><circle cx="97.6" cy="68.3" r="3.6" fill="#c8d6e2" opacity="0.16"/><circle cx="29.8" cy="86.7" r="4.6" fill="#0f1720" opacity="0.28"/><circle cx="29.8" cy="85.7" r="4.6" fill="#c8d6e2" opacity="0.16"/><circle cx="65.4" cy="58.2" r="1.6" fill="#0f1720" opacity="0.28"/><circle cx="65.4" cy="57.2" r="1.6" fill="#c8d6e2" opacity="0.16"/><circle cx="70.2" cy="75.4" r="2.6" fill="#0f1720" opacity="0.28"/><circle cx="70.2" cy="74.4" r="2.6" fill="#c8d6e2" opacity="0.16"/><circle cx="45.1" cy="57.5" r="3.6" fill="#0f1720" opacity="0.28"/><circle cx="45.1" cy="56.5" r="3.6" fill="#c8d6e2" opacity="0.16"/><circle cx="88.7" cy="53.1" r="4.6" fill="#0f1720" opacity="0.28"/><circle cx="88.7" cy="52.1" r="4.6" fill="#c8d6e2" opacity="0.16"/><circle cx="50.3" cy="95.1" r="1.6" fill="#0f1720" opacity="0.28"/><circle cx="50.3" cy="94.1" r="1.6" fill="#c8d6e2" opacity="0.16"/><circle cx="50.8" cy="25.2" r="2.6" fill="#0f1720" opacity="0.28"/><circle cx="50.8" cy="24.2" r="2.6" fill="#c8d6e2" opacity="0.16"/><circle cx="69.3" cy="66.9" r="3.6" fill="#0f1720" opacity="0.28"/><circle cx="69.3" cy="65.9" r="3.6" fill="#c8d6e2" opacity="0.16"/><circle cx="51.4" cy="67.1" r="4.6" fill="#0f1720" opacity="0.28"/><circle cx="51.4" cy="66.1" r="4.6" fill="#c8d6e2" opacity="0.16"/><circle cx="75.0" cy="47.3" r="1.6" fill="#0f1720" opacity="0.28"/><circle cx="75.0" cy="46.3" r="1.6" fill="#c8d6e2" opacity="0.16"/><circle cx="68.2" cy="90.7" r="2.6" fill="#0f1720" opacity="0.28"/><circle cx="68.2" cy="89.7" r="2.6" fill="#c8d6e2" opacity="0.16"/><circle cx="37.4" cy="42.9" r="3.6" fill="#0f1720" opacity="0.28"/><circle cx="37.4" cy="41.9" r="3.6" fill="#c8d6e2" opacity="0.16"/><circle cx="104.9" cy="61.1" r="4.6" fill="#0f1720" opacity="0.28"/><circle cx="104.9" cy="60.1" r="4.6" fill="#c8d6e2" opacity="0.16"/><circle cx="59.9" cy="68.4" r="1.6" fill="#0f1720" opacity="0.28"/><circle cx="59.9" cy="67.4" r="1.6" fill="#c8d6e2" opacity="0.16"/><circle cx="64.2" cy="51.0" r="2.6" fill="#0f1720" opacity="0.28"/><circle cx="64.2" cy="50.0" r="2.6" fill="#c8d6e2" opacity="0.16"/><path d="M30 46 L58 62 L48 92" stroke="#0b1219" stroke-width="3" fill="none" opacity="0.35"/><path d="M96 42 L74 66 L88 96" stroke="#0b1219" stroke-width="2.5" fill="none" opacity="0.3"/>
  <g filter="url(#aor1)"><polygon points="116.7,64.0 98.2,86.0 84.3,108.4 57.4,109.7 35.9,96.4 14.6,78.5 26.4,53.0 29.4,24.1 58.2,23.9 84.4,19.3 102.5,39.2" fill="#000"/></g>
  <g filter="url(#rimr1)"><polygon points="116.7,64.0 98.2,86.0 84.3,108.4 57.4,109.7 35.9,96.4 14.6,78.5 26.4,53.0 29.4,24.1 58.2,23.9 84.4,19.3 102.5,39.2" fill="#000"/></g>
  <g filter="url(#inr1)"><polygon points="116.7,64.0 98.2,86.0 84.3,108.4 57.4,109.7 35.9,96.4 14.6,78.5 26.4,53.0 29.4,24.1 58.2,23.9 84.4,19.3 102.5,39.2" fill="#000"/></g>
</g>
<!-- 어두운 외곽선: 물 위에서도 타일이 또렷하게 떨어져 보인다 -->
<polygon points="116.7,64.0 98.2,86.0 84.3,108.4 57.4,109.7 35.9,96.4 14.6,78.5 26.4,53.0 29.4,24.1 58.2,23.9 84.4,19.3 102.5,39.2" fill="none" stroke="#05161f" stroke-opacity="0.55" stroke-width="4"/><ellipse cx="46" cy="40" rx="20" ry="11" fill="url(#glossG)" opacity="0.85" transform="rotate(-20 46 40)"/><ellipse cx="41" cy="36.7" rx="6.8" ry="4.6" fill="#ffffff" opacity="0.95" transform="rotate(-20 46 40)"/></svg>
