<svg xmlns="http://www.w3.org/2000/svg" viewBox="0 0 64 64" width="64" height="64"><defs>
<filter id="icShadow" x="-30%" y="-30%" width="170%" height="170%">
  <feDropShadow dx="0" dy="2" stdDeviation="2.4" flood-color="#03101a" flood-opacity="0.55"/>
</filter>
<filter id="icBevel" x="-30%" y="-30%" width="160%" height="160%">
  <feOffset dx="-2" dy="-3" in="SourceAlpha" result="o"/>
  <feGaussianBlur in="o" stdDeviation="3" result="b"/>
  <feComposite in="SourceAlpha" in2="b" operator="out" result="i"/>
  <feFlood flood-color="#fff6e4" flood-opacity="0.55"/>
  <feComposite in2="i" operator="in"/>
</filter>
<filter id="icAo" x="-30%" y="-30%" width="160%" height="160%">
  <feOffset dx="2.5" dy="4" in="SourceAlpha" result="o"/>
  <feGaussianBlur in="o" stdDeviation="4" result="b"/>
  <feComposite in="SourceAlpha" in2="b" operator="out" result="i"/>
  <feFlood flood-color="#100603" flood-opacity="0.55"/>
  <feComposite in2="i" operator="in"/>
</filter>
<filter id="icRim" x="-30%" y="-30%" width="160%" height="160%">
  <feOffset dx="0" dy="5" in="SourceAlpha" result="o"/>
  <feGaussianBlur in="o" stdDeviation="1.8" result="b"/>
  <feComposite in="SourceAlpha" in2="b" operator="out" result="i"/>
  <feFlood flood-color="#8fe4ff" flood-opacity="0.5"/>
  <feComposite in2="i" operator="in"/>
</filter><radialGradient id="pg" cx="0.34" cy="0.28" r="0.9"><stop offset="0" stop-color="#ffd9ea"/><stop offset="0.45" stop-color="#ff9ec9"/><stop offset="0.82" stop-color="#e2568f"/><stop offset="1" stop-color="#8d1f47"/></radialGradient><radialGradient id="pgs" cx="0.34" cy="0.3" r="0.85"><stop offset="0" stop-color="#ffc9e0"/><stop offset="1" stop-color="#d94a83"/></radialGradient><radialGradient id="pgc" cx="0.35" cy="0.3" r="0.8"><stop offset="0" stop-color="#fff0b8"/><stop offset="0.6" stop-color="#ffc94a"/><stop offset="1" stop-color="#c07d06"/></radialGradient></defs><path d="M9 33q-6 -1 -6 4 0 4 4 4 3 0 3 -3" fill="none" stroke="#1a0f08" stroke-width="5.4" stroke-linecap="round"/><path d="M9 33q-6 -1 -6 4 0 4 4 4 3 0 3 -3" fill="none" stroke="#e2568f" stroke-width="3" stroke-linecap="round"/><rect x="17" y="46" width="11" height="12" rx="5" fill="#d94a83" stroke="#1a0f08" stroke-width="2.4"/><rect x="41" y="46" width="11" height="12" rx="5" fill="#d94a83" stroke="#1a0f08" stroke-width="2.4"/><g filter="url(#icShadow)"><path d="M10 34q0 -16 21 -16 21 0 21 16 0 16 -21 16 -21 0 -21 -16Z" fill="url(#pg)" stroke="#1a0f08" stroke-width="3" stroke-linejoin="round"/></g><g filter="url(#icBevel)"><path d="M10 34q0 -16 21 -16 21 0 21 16 0 16 -21 16 -21 0 -21 -16Z" fill="#000"/></g><g filter="url(#icAo)"><path d="M10 34q0 -16 21 -16 21 0 21 16 0 16 -21 16 -21 0 -21 -16Z" fill="#000"/></g><g filter="url(#icRim)"><path d="M10 34q0 -16 21 -16 21 0 21 16 0 16 -21 16 -21 0 -21 -16Z" fill="#000"/></g><path d="M20 21q-4 -10 3 -12 6 -1 7 9Z" fill="#d94a83" stroke="#1a0f08" stroke-width="2.6" stroke-linejoin="round"/><ellipse cx="53" cy="35" rx="9" ry="8" fill="url(#pgs)" stroke="#1a0f08" stroke-width="2.8"/><ellipse cx="50" cy="35" rx="1.9" ry="2.6" fill="#1a0f08" opacity=".75"/><ellipse cx="56" cy="35" rx="1.9" ry="2.6" fill="#1a0f08" opacity=".75"/><circle cx="41" cy="30" r="2.6" fill="#1a0f08"/><circle cx="40.2" cy="29.2" r="0.9" fill="#fff"/><rect x="22" y="19" width="17" height="5" rx="2.5" fill="#5c1230" stroke="#1a0f08" stroke-width="2"/><circle cx="30" cy="10" r="7" fill="url(#pgc)" stroke="#1a0f08" stroke-width="2.6"/><circle cx="28" cy="8" r="2.2" fill="#fff" opacity=".55"/></svg>
