<svg xmlns="http://www.w3.org/2000/svg" viewBox="0 0 64 64" width="64" height="64"><defs><clipPath id="vpring" clip-rule="evenodd"><path clip-rule="evenodd" d="M32 8a24 24 0 1 0 0 48a24 24 0 1 0 0-48ZM32 16a16 16 0 1 1 0 32a16 16 0 1 1 0-32Z"/></clipPath><radialGradient id="vpd" cx=".36" cy=".28" r=".88"><stop offset="0" stop-color="#6b53c8"/><stop offset=".45" stop-color="#241a52"/><stop offset="1" stop-color="#070312"/></radialGradient><radialGradient id="vpb" cx=".62" cy=".9" r=".42"><stop offset="0" stop-color="#7fe6ff" stop-opacity=".5"/><stop offset="1" stop-color="#7fe6ff" stop-opacity="0"/></radialGradient></defs><circle cx="32" cy="32" r="24" fill="url(#vpd)"/><g clip-path="url(#vpring)" style="filter:blur(3px)" opacity=".95"><path d="M32 32L32.00 2.00A30 30 0 0 1 57.98 17.00Z" fill="hsl(0 95% 66%)"/><path d="M32 32L57.98 17.00A30 30 0 0 1 57.98 47.00Z" fill="hsl(45 95% 66%)"/><path d="M32 32L57.98 47.00A30 30 0 0 1 32.00 62.00Z" fill="hsl(90 95% 66%)"/><path d="M32 32L32.00 62.00A30 30 0 0 1 6.02 47.00Z" fill="hsl(160 95% 66%)"/><path d="M32 32L6.02 47.00A30 30 0 0 1 6.02 17.00Z" fill="hsl(215 95% 66%)"/><path d="M32 32L6.02 17.00A30 30 0 0 1 32.00 2.00Z" fill="hsl(285 95% 66%)"/></g><circle cx="32" cy="32" r="24" fill="url(#vpb)"/><circle cx="32" cy="32" r="24" fill="none" stroke="#05020c" stroke-width="2.5"/><ellipse cx="24" cy="21" rx="6" ry="3.4" fill="#fff" opacity=".45" transform="rotate(-30 24 21)"/><circle cx="22.5" cy="20" r="1.8" fill="#ffffff" opacity=".8"/></svg>
