<svg xmlns="http://www.w3.org/2000/svg" viewBox="0 0 64 64" width="64" height="64"><circle cx="32" cy="32" r="25" fill="#0b4560" stroke="#d6f2ff" stroke-width="3"/><path d="M32 32 32 7A25 25 0 0 1 49.7 14.3Z" fill="#ff7a6b"/><path d="M32 32 49.7 14.3A25 25 0 0 1 57 32Z" fill="#ffd257"/><path d="M32 32h25a25 25 0 0 1-7.3 17.7Z" fill="#5fe0a0"/><path d="M32 32 49.7 49.7A25 25 0 0 1 32 57Z" fill="#5ed6ff"/><path d="M32 32V57a25 25 0 0 1-17.7-7.3Z" fill="#c48bff"/><path d="M32 32 14.3 49.7A25 25 0 0 1 7 32Z" fill="#ff9ec4"/><path d="M32 32H7a25 25 0 0 1 7.3-17.7Z" fill="#ffb340"/><path d="M32 32 14.3 14.3A25 25 0 0 1 32 7Z" fill="#8ef0ff"/><circle cx="32" cy="32" r="5" fill="#fff" stroke="#0b4560" stroke-width="2"/></svg>
